<?xml version="1.0" standalone="no"?>
<!DOCTYPE svg PUBLIC "-//W3C//DTD SVG 20010904//EN"
 "http://www.w3.org/TR/2001/REC-SVG-20010904/DTD/svg10.dtd">
<svg version="1.0" xmlns="http://www.w3.org/2000/svg"
 width="541.000000pt" height="541.000000pt" viewBox="0 0 541.000000 541.000000"
 preserveAspectRatio="xMidYMid meet">
<metadata>
Created by potrace 1.11, written by Peter Selinger 2001-2013
</metadata>
<g transform="translate(0.000000,541.000000) scale(0.100000,-0.100000)"
fill="#000000" stroke="none">
<path d="M2617 4745 c-1 -1 -49 -5 -105 -9 -57 -3 -107 -8 -110 -10 -4 -2 -28
-7 -53 -10 -60 -8 -288 -70 -359 -98 -80 -31 -142 -57 -170 -72 -265 -140
-405 -241 -572 -412 -151 -154 -254 -294 -351 -474 -93 -174 -181 -425 -203
-580 -3 -25 -8 -48 -10 -52 -24 -40 -24 -601 0 -669 3 -8 7 -25 10 -39 14 -78
46 -197 81 -305 49 -146 175 -387 254 -485 11 -14 21 -30 21 -37 0 -6 3 -13 8
-15 4 -2 32 -34 64 -73 67 -84 212 -227 288 -287 30 -23 57 -45 60 -49 10 -11
166 -114 215 -142 114 -63 302 -149 355 -161 8 -2 61 -18 117 -34 56 -17 121
-34 145 -37 23 -4 46 -9 49 -11 18 -11 173 -19 369 -19 220 0 269 4 400 31 97
20 84 17 170 43 470 140 853 425 1133 842 31 47 57 90 57 96 0 6 4 13 8 15 19
7 155 311 165 368 3 14 10 36 16 50 16 38 53 192 47 197 -3 3 0 15 5 26 18 33
24 121 24 362 0 208 -8 355 -20 375 -2 4 -6 22 -9 41 -16 118 -118 402 -199
549 -22 41 -45 84 -51 95 -19 34 -128 187 -175 245 -84 103 -189 205 -322 315
-54 44 -210 145 -299 192 -169 90 -450 188 -600 209 -19 2 -44 6 -55 9 -62 12
-386 29 -398 20z m640 -980 c17 -10 36 -29 42 -42 8 -17 11 -305 11 -948 0
-509 3 -925 8 -926 4 0 14 -2 23 -4 47 -9 46 -52 49 1318 l0 137 331 0 331 0
34 -34 c31 -31 34 -40 35 -93 0 -32 1 -344 2 -693 l2 -635 83 1 c49 0 82 -5
83 -11 3 -27 4 -192 1 -205 -3 -13 -185 -15 -1575 -14 -865 1 -1578 2 -1584 3
-10 1 -13 31 -13 114 l0 113 94 -1 93 0 1 681 c0 618 1 685 17 717 11 23 27
39 47 46 20 7 148 11 344 11 l314 0 0 -719 c0 -563 3 -721 13 -728 6 -5 23 -9
37 -9 l25 1 1 920 c1 506 2 928 3 937 1 24 45 68 75 76 14 4 254 7 534 6 476
0 509 -1 539 -19z"/>
<path d="M2646 3729 c-71 -11 -169 -63 -220 -115 -113 -117 -143 -295 -75
-439 53 -111 147 -187 270 -218 68 -18 139 -14 211 11 273 96 357 427 162 641
-48 53 -145 107 -210 116 -76 12 -89 12 -138 4z m161 -214 l-2 -75 76 0 75 0
0 -97 -1 -98 -72 -3 c-60 -2 -73 -6 -74 -20 -1 -9 -2 -42 -3 -72 l-1 -55 -97
-1 -98 0 0 73 0 73 -75 0 c-83 0 -77 -6 -77 75 0 19 1 55 1 80 l1 45 75 0 75
0 0 75 0 75 99 0 100 0 -2 -75z"/>
<path d="M1482 2940 l-1 -80 80 0 79 0 0 80 0 80 -79 0 -79 0 0 -80z"/>
<path d="M1731 2940 l-1 -81 82 3 83 3 1 65 c0 36 -2 71 -4 78 -3 8 -29 12
-82 12 l-78 0 -1 -80z"/>
<path d="M3570 2940 c0 -44 3 -80 8 -81 59 -5 142 -2 145 6 1 6 3 42 2 80 l0
70 -77 3 -78 3 0 -81z"/>
<path d="M3819 3013 c0 -5 -1 -41 -2 -81 l-2 -72 35 -1 c19 0 54 -1 78 -2 49
-2 50 -1 51 96 l0 67 -80 0 c-43 0 -79 -3 -80 -7z"/>
<path d="M1487 2743 c-11 -17 -4 -152 7 -155 6 -2 40 -3 76 -3 l65 0 0 80 0
80 -72 3 c-39 2 -74 -1 -76 -5z"/>
<path d="M1737 2743 c-3 -5 -5 -41 -5 -80 -1 -81 -10 -73 88 -77 70 -3 76 3
74 76 -1 35 -2 69 -3 76 -1 13 -146 18 -154 5z"/>
<path d="M3572 2668 l3 -83 75 0 74 0 1 80 0 80 -78 3 -78 3 3 -83z"/>
<path d="M3819 2737 c-1 -14 -1 -139 0 -147 1 -4 91 -5 143 -1 16 1 18 11 15
79 l-2 77 -77 2 c-55 2 -78 -1 -79 -10z"/>
<path d="M1485 2455 c-2 -5 -3 -41 -2 -80 l2 -70 78 -3 77 -3 0 83 0 83 -76 0
c-45 1 -77 -3 -79 -10z"/>
<path d="M1735 2460 c-1 -3 -3 -39 -4 -81 l-2 -76 80 -1 c70 -1 81 1 82 16 2
20 1 122 0 137 -1 11 -150 15 -156 5z"/>
<path d="M3570 2384 l0 -82 77 1 77 2 1 78 c1 42 -1 78 -5 78 -3 1 -38 2 -77
3 l-73 2 0 -82z"/>
<path d="M3819 2445 c0 -11 -2 -48 -2 -82 l-2 -61 80 1 80 2 0 80 0 80 -77 0
c-71 0 -78 -1 -79 -20z"/>
<path d="M2515 2442 l-30 -3 0 -289 c0 -251 2 -290 15 -291 36 -3 436 -5 445
-2 7 2 10 102 9 286 -1 155 -2 287 -3 292 -1 9 -356 15 -436 7z"/>
</g>
</svg>
